# xmcd
#
# Track frame offsets: 
#        150
#        6362
#        31875
#        45395
#        55350
#        64137
#        81324
#        94066
#        110865
#        122332
#        128932
#        147996
#        167609
#        178263
#        188867
#        209140
#        234956
#        239748
#        258110
#        268764
#        295682
#        299554
#        309429
#        313337
#
# Disc length: 4424 seconds
#
# Revision: 0
# Processed by: cddbd v1.5.2PL0 Copyright (c) Steve Scherf et al.
# Submitted via: ExactAudioCopy v1.0b1
#
DISCID=72114618
DTITLE=Various Artist - Cold.Killed.Collected [CD2)
DYEAR=2011
DGENRE=Hip-Hop
TTITLE0=Tonedeff - The Building Process (Interlude)
TTITLE1=QN5 All-Stars - Fifth Gear
TTITLE2=PackFM and Tonedeff - Ruthless
TTITLE3=Tonedeff - Champions Freeverse
TTITLE4=Tonedeff - Props From Breeze (Interlude)
TTITLE5=Kokayi - Ninety5 (feat. Tonedeff and Substantial)
TTITLE6=Quit Your Dayjob - Bodypoppers (feat. Tonedeff) (APOS Remix)
TTITLE7=Tonedeff and Substantial - Punk (Megashow Mix)
TTITLE8=Tonedeff - Halftime Radio Show Freeverse #1 (2005)
TTITLE9=Tonedeff - Reppin' Lovely (Unreleased Demo)
TTITLE10=QN5 All-Stars - Get Live
TTITLE11=Vice Verses, Mr. Mecca and Tonedeff - Live a Little
TTITLE12=Tonedeff and PackFM - Halftime Radio Anniversary Freestyle #1 (
TTITLE12=2010)
TTITLE13=Big Lo - Bump In The Night (feat. Tonedeff)
TTITLE14=CunninLynguists - Fear (feat. Tonedeff, Session, Mr. Mecca and 
TTITLE14=PackFM)
TTITLE15=Substantial - Sign Language (feat. Extended Famm)
TTITLE16=Tonedeff - Behind The Gates (Unreleased Alt Verse)
TTITLE17=CunninLynguists - The Gates (feat. Tonedeff)
TTITLE18=Rhymefest and Tonedeff - Halftime Radio Anniversary Freeverse #
TTITLE18=2 (2010)
TTITLE19=The Understudies - Bananas (feat. Tonedeff, CunninLynguists, 
TTITLE19=Mr. SOS, Cashmere The Pro and Oktober Zero)
TTITLE20=Tonedeff - Bootstraps Freeverse
TTITLE21=Breez Evaflowin and Tonedeff - Halftime Radio Freestyle Cypher
TTITLE22=Tonedeff - Tone and Tori (Interlude)
TTITLE23=Tonedeff - What Part Of Forever (Cover)
EXTD=
EXTT0=
EXTT1=
EXTT2=
EXTT3=
EXTT4=
EXTT5=
EXTT6=
EXTT7=
EXTT8=
EXTT9=
EXTT10=
EXTT11=
EXTT12=
EXTT13=
EXTT14=
EXTT15=
EXTT16=
EXTT17=
EXTT18=
EXTT19=
EXTT20=
EXTT21=
EXTT22=
EXTT23=
PLAYORDER=
